<svg width="28" height="28" viewBox="0 0 28 28" fill="none" xmlns="http://www.w3.org/2000/svg">
<path d="M23.544 13.045C23.848 13.4713 24 13.6845 24 14C24 14.3155 23.848 14.5287 23.544 14.955C22.1779 16.8706 18.6892 21 14 21C9.31078 21 5.8221 16.8706 4.45604 14.955C4.15201 14.5287 4 14.3155 4 14C4 13.6845 4.15201 13.4713 4.45604 13.045C5.8221 11.1294 9.31078 7 14 7C18.6892 7 22.1779 11.1294 23.544 13.045Z" stroke="#8D8D97" stroke-width="1.5"/>
<path d="M17.0004 14C17.0004 12.3431 15.6573 11 14.0004 11C12.3436 11 11.0004 12.3431 11.0004 14C11.0004 15.6569 12.3436 17 14.0004 17C15.6573 17 17.0004 15.6569 17.0004 14Z" stroke="#8D8D97" stroke-width="1.5"/>
</svg>
