<svg width="28" height="28" viewBox="0 0 28 28" fill="none" xmlns="http://www.w3.org/2000/svg">
<path d="M5.07645 12C5.07645 12 8.30719 15.9037 13.8456 15.7894C19.384 15.6751 22.1533 12 22.1533 12" stroke="#8D8D97" stroke-width="1.5" stroke-linecap="round"/>
<path fill-rule="evenodd" clip-rule="evenodd" d="M19.5411 14.7493C19.3027 14.4106 19.384 13.9427 19.7228 13.7043C20.0615 13.4659 20.5294 13.5472 20.7678 13.886L22.8429 16.8345C23.0813 17.1732 23 17.6411 22.6612 17.8795C22.3225 18.1179 21.8547 18.0365 21.6163 17.6978L19.5411 14.7493ZM7.68836 14.9431C7.92676 14.6044 7.84542 14.1365 7.50669 13.8981C7.16796 13.6598 6.7001 13.7411 6.4617 14.0798L4.38655 17.0283C4.14815 17.3671 4.22949 17.8349 4.56822 18.0733C4.90695 18.3117 5.37481 18.2304 5.61321 17.8916L7.68836 14.9431ZM16.2939 15.2441C15.8843 15.3057 15.6023 15.6878 15.6639 16.0974L16.2008 19.6627C16.2624 20.0723 16.6445 20.3544 17.0541 20.2927C17.4637 20.231 17.7457 19.849 17.684 19.4394L17.1472 15.874C17.0855 15.4644 16.7035 15.1824 16.2939 15.2441ZM12.1134 16.2033C12.1751 15.7937 11.893 15.4117 11.4834 15.35C11.0738 15.2884 10.6918 15.5704 10.6301 15.98L10.0933 19.5454C10.0316 19.955 10.3137 20.337 10.7233 20.3987C11.1328 20.4603 11.5149 20.1783 11.5766 19.7687L12.1134 16.2033Z" fill="#8D8D97"/>
</svg>
